<svg width="24" height="24" viewBox="0 0 24 24" fill="none" xmlns="http://www.w3.org/2000/svg">
<g clip-path="url(#clip0_4586_27)">
<mask id="mask0_4586_27" style="mask-type:luminance" maskUnits="userSpaceOnUse" x="-1" y="0" width="25" height="25">
<path d="M-0.00372314 0H23.9986V24.0023H0.00204239L-0.00372314 0Z" fill="white"/>
</mask>
<g mask="url(#mask0_4586_27)">
<path fill-rule="evenodd" clip-rule="evenodd" d="M-6 0H30.0352V24.0023H-6V0Z" fill="#FF0000"/>
<path fill-rule="evenodd" clip-rule="evenodd" d="M4.94314 12.2404C5.58313 11.4621 6.90922 12.2231 7.99316 11.6639C6.70742 11.733 6.00978 11.0469 4.99503 11.145C6.04438 10.4992 6.93805 11.3525 8.11424 11.0066C6.55752 10.8797 6.62671 10.1821 5.21413 10.0841C6.47103 9.54787 7.08796 10.6376 8.3218 10.3897C6.86886 10.0552 6.6786 9.20194 5.60042 9.01744C7.17444 8.78105 7.07066 9.70931 8.61585 9.82462C7.0476 9.15581 7.46272 8.56772 6.14816 8.06034C7.61839 8.02575 7.52038 9.0405 9.00214 9.30572C7.73371 8.49853 7.88938 7.76053 6.84003 7.18397C8.08541 7.20703 8.20649 8.48123 9.47492 8.8733C8.34486 7.97962 8.63891 7.21856 7.66452 6.41714C8.89836 6.70542 8.71963 7.80666 10.0054 8.5043C9.05403 7.44919 9.41727 6.68812 8.58702 5.81752C9.77474 6.20381 9.32502 7.24739 10.5589 8.23908C9.84969 7.07442 10.2879 6.33066 9.59024 5.34473C10.6972 5.9213 10.161 6.98217 11.1873 8.04305C10.703 6.84956 11.1873 6.1058 10.6915 5.04492C11.637 5.75409 11.0778 6.88992 11.8388 7.97962C11.5621 6.48056 12.2078 6.23264 12.006 4.92384C12.721 5.80598 11.9195 6.68812 12.4673 7.97962C12.4096 6.50939 13.188 6.16345 13.0496 4.9815C13.7645 6.04237 12.6518 6.96487 13.1188 8.1007C13.2341 6.69966 14.1566 6.34219 14.1739 5.25248C14.7332 6.24994 13.5109 6.97064 13.7127 8.29673C14.1105 6.83226 15.0906 6.65353 15.2117 5.66761C15.5461 6.82073 14.2085 7.3627 14.2892 8.64267C14.687 7.34541 15.9094 7.18973 16.163 6.23264C16.313 7.45495 15.1079 7.67405 14.7735 9.0232C15.4078 7.92773 16.5148 7.82972 17.0106 6.95911C16.9702 8.16989 15.6095 8.32556 15.1944 9.46139C15.9785 8.49853 16.9587 8.66573 17.7428 7.81242C17.6621 8.90789 16.2784 8.84447 15.5404 9.97453C16.3937 9.19041 17.6736 9.4268 18.3252 8.75222C18.2906 9.71508 16.5955 9.64589 15.7883 10.505C16.78 9.96877 18.0311 10.2859 18.7576 9.7785C18.6192 10.626 16.8319 10.4358 15.967 11.0931C17.149 10.7644 18.0599 11.266 19.0228 10.9028C18.5558 11.7273 16.9299 11.2084 16.065 11.7446C17.0913 11.5716 18.181 12.1885 19.115 11.9925C18.8095 12.7017 17.0279 11.9464 16.0593 12.3961C17.2124 12.3788 17.9619 13.1168 19.0228 13.0649C18.4462 13.7107 16.878 12.8228 15.967 12.9727C17.0798 13.2033 17.9273 14.1258 18.7749 14.1719C18.083 14.7023 16.7857 13.4916 15.7306 13.6472C16.8146 13.9355 17.7255 15.1694 18.3482 15.1982C17.6794 15.6594 16.3533 14.1431 15.4481 14.195C16.5436 14.6966 17.051 15.9535 17.7774 16.1322C16.8838 16.4205 16.0016 14.7658 15.0388 14.7081C16.1515 15.4115 16.2149 16.4839 17.074 16.9567C16.1746 17.1873 15.5288 15.3135 14.5775 15.1578C15.4942 15.8266 15.6268 17.2623 16.238 17.7178C15.3155 17.7639 14.9869 15.8093 14.0471 15.5268C14.8543 16.2014 14.6582 17.6601 15.2809 18.2886C14.3296 18.0925 14.4507 16.3859 13.4532 15.8093C14.1681 16.7203 13.7991 18.006 14.2719 18.7325C13.3379 18.3577 13.7473 16.8299 12.8536 15.965C13.3379 16.9336 12.819 18.0579 13.1995 18.992C12.352 18.5768 12.9228 16.7722 12.2713 16.0515C12.5711 17.17 12.0176 18.0925 12.2424 19.09C11.3718 18.081 12.375 17.072 11.6197 16.0342C11.8158 17.2219 10.9913 18.0406 11.1239 19.0323C10.432 18.2251 11.4929 16.9279 10.9567 15.9131C11.072 17.072 10.0054 18.0868 10.0803 18.819C9.52105 17.885 10.703 16.778 10.3859 15.7113C10.3167 16.8183 9.2443 17.418 9.0425 18.4212C8.67927 17.3142 9.95924 16.5127 9.84969 15.423C9.48069 16.4609 8.44288 16.876 8.07388 17.8792C7.77407 16.7722 9.29042 16.1841 9.33078 15.0195C8.86377 16.1149 7.61839 16.3513 7.20903 17.1873C7.05336 16.0919 8.79458 15.596 8.858 14.5524C8.29874 15.5557 6.93805 15.5902 6.46527 16.3917C6.39608 15.2962 8.22955 15.1578 8.51783 14.0105C7.95857 14.8638 6.46527 14.76 5.84835 15.4519C5.94636 14.4314 7.92397 14.3679 8.24108 13.457C7.50308 14.1661 6.13663 13.8721 5.35827 14.4371C5.79069 13.4339 7.65299 13.6472 8.06811 12.9208C7.24939 13.3532 5.79069 12.9381 5.06999 13.3647C5.72727 12.4192 7.17444 12.9842 7.99316 12.3269C6.6613 12.5229 5.85988 11.9925 4.93738 12.2404H4.94314Z" fill="#FFFF00"/>
<path fill-rule="evenodd" clip-rule="evenodd" d="M16.682 12.004C16.704 12.6285 16.6 13.2509 16.3762 13.8343C16.1524 14.4176 15.8134 14.9499 15.3795 15.3994C14.9455 15.849 14.4255 16.2065 13.8503 16.4506C13.2752 16.6948 12.6568 16.8207 12.032 16.8207C11.4072 16.8207 10.7888 16.6948 10.2137 16.4506C9.63856 16.2065 9.1185 15.849 8.68454 15.3994C8.25058 14.9499 7.9116 14.4176 7.68782 13.8343C7.46404 13.2509 7.36004 12.6285 7.38203 12.004C7.42447 10.7991 7.93295 9.65772 8.80036 8.82033C9.66776 7.98294 10.8263 7.51494 12.032 7.51494C13.2377 7.51494 14.3963 7.98294 15.2637 8.82033C16.1311 9.65772 16.6396 10.7991 16.682 12.004Z" fill="#FFFF00"/>
<path fill-rule="evenodd" clip-rule="evenodd" d="M16.0824 12.0156C16.0824 12.5463 15.9778 13.0719 15.7747 13.5623C15.5716 14.0526 15.2739 14.4982 14.8986 14.8735C14.5233 15.2488 14.0777 15.5465 13.5874 15.7496C13.097 15.9527 12.5714 16.0573 12.0407 16.0573C11.5099 16.0573 10.9843 15.9527 10.494 15.7496C10.0036 15.5465 9.55806 15.2488 9.18275 14.8735C8.80744 14.4982 8.50973 14.0526 8.30662 13.5623C8.1035 13.0719 7.99896 12.5463 7.99896 12.0156C7.99896 10.9429 8.42509 9.91412 9.18359 9.15561C9.9421 8.3971 10.9709 7.97098 12.0435 7.97098C13.1162 7.97098 14.145 8.3971 14.9035 9.15561C15.662 9.91412 16.0881 10.9429 16.0881 12.0156H16.0824Z" fill="#FF0000"/>
<path fill-rule="evenodd" clip-rule="evenodd" d="M15.5231 12.0213C15.5231 12.9426 15.1571 13.8262 14.5056 14.4777C13.8542 15.1291 12.9706 15.4951 12.0493 15.4951C11.128 15.4951 10.2444 15.1291 9.59295 14.4777C8.94149 13.8262 8.5755 12.9426 8.5755 12.0213C8.5755 11.1 8.94149 10.2164 9.59295 9.56499C10.2444 8.91353 11.128 8.54754 12.0493 8.54754C12.9706 8.54754 13.8542 8.91353 14.5056 9.56499C15.1571 10.2164 15.5231 11.1 15.5231 12.0213Z" fill="#FFFF00"/>
<path fill-rule="evenodd" clip-rule="evenodd" d="M9.09441 9.74391C10.0573 9.72661 11.2508 9.81309 12.0406 10.4473C12.8867 9.9177 13.8834 9.68069 14.8773 9.77274L15.3962 10.7183C14.6467 10.6433 13.9145 10.7471 13.0496 11.0988C13.5753 11.4866 13.9979 11.9974 14.2803 12.5865C14.5628 13.1755 14.6965 13.8248 14.6698 14.4775C14.5429 14.6389 14.3469 14.8119 14.2201 14.9676C14.4046 13.6357 13.7011 12.1424 12.6749 11.3583C13.5051 12.5633 14.001 13.6415 13.8626 15.1348L13.3898 15.4288C13.6089 14.1143 13.3033 12.5748 12.3289 11.6812C12.7012 12.2315 12.9611 12.8499 13.0936 13.501C13.2262 14.152 13.2289 14.8229 13.1015 15.4749C12.9516 15.5211 12.721 15.6479 12.5653 15.694C12.7492 15.0784 12.7991 14.4305 12.7116 13.794C12.6241 13.1575 12.4012 12.5472 12.0579 12.004C11.7212 12.5435 11.5032 13.1486 11.4187 13.7789C11.3342 14.4092 11.3851 15.0503 11.5679 15.6594L11.072 15.5153C10.8068 14.1027 11.1758 12.5172 11.8158 11.6869C11.1643 12.0675 10.5473 13.6876 10.7203 15.3423L10.2821 15.1405C10.0688 13.9067 10.6281 12.2981 11.4353 11.3698C10.5243 11.9464 9.78052 13.3532 9.91313 14.8695C9.77475 14.7485 9.64214 14.685 9.50377 14.564C9.34233 13.2379 10.1092 11.906 11.0028 11.1046C10.2643 10.7918 9.46187 10.6594 8.66199 10.7183C8.80613 10.4127 8.95027 10.0553 9.09441 9.74967V9.74391Z" fill="#FF0000"/>
</g>
</g>
<defs>
<clipPath id="clip0_4586_27">
<rect width="24" height="24" rx="6" fill="white"/>
</clipPath>
</defs>
</svg>
